<?xml version="1.0" encoding="utf-8"?>
<!-- Generator: Adobe Illustrator 18.1.0, SVG Export Plug-In . SVG Version: 6.00 Build 0)  -->
<svg version="1.1" id="Layer_1" xmlns="http://www.w3.org/2000/svg" xmlns:xlink="http://www.w3.org/1999/xlink" x="0px" y="0px"
	 viewBox="-364.3 255 128.3 52" enable-background="new -364.3 255 128.3 52" xml:space="preserve">
<path fill="#EE3F6B" d="M-364.3,267.5h5v2.1c1.2-1.4,3.4-2.6,6-2.6c5.1,0,7.9,3.4,7.9,8.3v14.6h-5v-13.7c0-2.8-1.4-4.6-4.2-4.6
	c-2.2,0-4.1,1.4-4.7,3.6v14.7h-5C-364.3,289.9-364.3,267.5-364.3,267.5z"/>
<path fill="#EE3F6B" d="M-314.2,261.7c-0.8-0.5-1.7-0.7-2.5-0.7c-2,0-3.3,1.2-3.3,3.4v3.1h4.9v4.2h-4.9v18.2h-4.9v-18.2h-3.9v-4.2
	h3.9V264c0-4.8,3.2-7.4,7.4-7.4c1.5,0,2.4,0.2,3.3,0.6V261.7z"/>
<path fill="#EE3F6B" d="M-300.7,290.4c-6.3,0-11.9-4.8-11.9-11.7s5.6-11.7,11.9-11.7c6.3,0,11.9,4.8,11.9,11.7
	S-294.4,290.4-300.7,290.4z M-300.7,271.3c-3.6,0-6.9,3.1-6.9,7.4c0,4.2,3.3,7.4,6.9,7.4c3.6,0,6.9-3.1,6.9-7.4
	C-293.9,274.4-297.1,271.3-300.7,271.3z"/>
<path fill="#EE3F6B" d="M-271.8,272.6c-0.7-0.5-1.9-0.8-3-0.8c-2.1,0-4,1.2-4.5,3.6v14.5h-5v-22.4h5v2.3c0.9-1.7,2.8-2.8,5-2.8
	c1.1,0,2.1,0.2,2.5,0.4V272.6z"/>
<path fill="#EE3F6B" d="M-244.3,267c4.6,0,7.3,3.2,7.3,8.3v14.6h-5v-13.8c0-2.8-1.2-4.6-3.7-4.6c-1.8,0-3.5,1.1-4,3.3v15h-5v-13.8
	c0-2.8-1.2-4.6-3.7-4.6c-1.8,0-3.5,1.1-4,3.3v15h-5v-22.4h5v1.9c1.1-1.4,3.1-2.4,5.6-2.4c2.5,0,4.7,1.3,5.9,3
	C-249.3,268.2-247.3,267-244.3,267z"/>
<path fill="#EE3F6B" d="M-333.8,289.9h-5v-22.4h5V289.9z"/>
<circle fill="#EE3F6B" cx="-336.4" cy="259.4" r="3.4"/>
</svg>
