<svg xmlns="http://www.w3.org/2000/svg" xmlns:xlink="http://www.w3.org/1999/xlink" version="1.1" id="Layer_1" x="0px" y="0px" width="162px" height="52px" viewBox="0 0 162 52" enable-background="new 0 0 162 52" xml:space="preserve">
						<g>
							<path fill="#EE3F6B" d="M17.196,50.971c-1.012,0-1.405-0.313-1.779-0.313c-0.063,0-0.305,0-0.305,0s0.021-0.563,0.021-0.87   c0-0.305-0.021-0.86-0.021-0.86h0.484c0,1.015,0.651,1.46,1.64,1.46c0.779,0,1.519-0.285,1.519-1.195   c0-0.893-0.921-1.084-1.822-1.438c-0.902-0.361-1.772-0.809-1.772-1.943c0-0.646,0.326-1.145,0.842-1.455   c0.414-0.242,0.952-0.373,1.559-0.373c0.849,0,1.179,0.201,1.586,0.201c0.062,0,0.284,0,0.284,0s-0.019,0.524-0.019,0.83   c0,0.303,0.019,0.797,0.019,0.797h-0.475c0-0.455-0.191-1.242-1.387-1.242c-0.404,0-0.709,0.062-0.93,0.192   c-0.284,0.162-0.417,0.415-0.417,0.759c0,0.83,0.872,1.061,1.722,1.404c1.028,0.413,1.91,0.729,1.91,1.885   C19.855,50.131,18.716,50.971,17.196,50.971z"/>
							<path fill="#EE3F6B" d="M28.419,45.74c0-0.811-0.303-1.104-1.342-1.104c-0.915,0-1.045,0.021-1.045,0.021v5.079   c0,0.695,0.417,0.695,0.921,0.695v0.487c-0.307,0-0.984-0.008-1.489-0.008s-1.184,0.008-1.487,0.008v-0.487   c0.505,0,0.919,0,0.919-0.695v-5.079c0,0-0.14-0.021-1.019-0.021c-1.042,0-1.34,0.296-1.34,1.104h-0.481   c0,0,0.019-0.578,0.019-0.883c0-0.303-0.019-0.866-0.019-0.866c1.251,0.038,2.335,0.038,3.419,0.038c1.082,0,2.122,0,3.42-0.038   c0,0-0.021,0.563-0.021,0.866c0,0.305,0.021,0.883,0.021,0.883H28.419z"/>
							<path fill="#EE3F6B" d="M37.206,50.971c-0.728,0-1.266-0.253-1.915-0.973c-0.528-0.584-0.812-1.032-1.375-1.88   c0,0-0.386-0.013-0.637-0.022c-0.163-0.008-0.496-0.037-0.496-0.037v1.678c0,0.649,0.342,0.697,0.798,0.697v0.486   c-0.233,0-0.861-0.02-1.363-0.02c-0.507,0-1.133,0.02-1.359,0.02v-0.486c0.456,0,0.798-0.048,0.798-0.697v-4.545   c0-0.694-0.391-0.694-0.91-0.694V44.01c0.233,0,0.984,0.01,1.489,0.01c0.505,0,0.91-0.01,1.852-0.01   c1.517,0,2.296,0.811,2.296,1.844c0,0.41-0.151,0.799-0.375,1.092c-0.3,0.416-0.777,0.718-1.042,0.828   c0.232,0.324,0.619,0.852,1.112,1.43c0.577,0.684,1.247,1.23,1.64,1.23c0.082,0,0.112,0,0.112,0v0.479   C37.832,50.912,37.539,50.971,37.206,50.971z M33.714,44.576c-0.649,0-0.931,0.029-0.931,0.029v2.912c0,0,0.323,0.053,0.577,0.053   c0.314,0.009,0.496,0.009,0.496,0.009c0.787,0,1.345-0.604,1.345-1.595C35.201,45.04,34.603,44.576,33.714,44.576z"/>
							<path fill="#EE3F6B" d="M45.819,50.9c-0.507,0-1.105,0.02-1.405,0.02v-0.486c0.686-0.007,0.777-0.188,0.484-0.928l-0.538-1.287   h-2.55l-0.493,1.246c-0.242,0.666,0,0.969,0.647,0.969v0.486c-0.303,0-0.751-0.02-1.256-0.02c-0.507,0-0.949,0.02-1.254,0.02   v-0.486c0.605,0.01,0.842-0.312,1.093-0.898l2.285-5.525h0.996l2.294,5.434c0.335,0.759,0.486,0.99,1.103,0.99v0.487   C46.921,50.92,46.326,50.9,45.819,50.9z M43.066,45.145l-1.033,2.527h2.087L43.066,45.145z"/>
							<path fill="#EE3F6B" d="M53.884,45.74c0-0.811-0.305-1.104-1.347-1.104c-0.91,0-1.038,0.021-1.038,0.021v5.079   c0,0.695,0.412,0.695,0.917,0.695v0.487c-0.303,0-0.982-0.008-1.487-0.008c-0.505,0-1.184,0.008-1.489,0.008v-0.487   c0.507,0,0.921,0,0.921-0.695v-5.079c0,0-0.14-0.021-1.021-0.021c-1.042,0-1.333,0.296-1.333,1.104h-0.489   c0,0,0.021-0.578,0.021-0.883c0-0.303-0.021-0.866-0.021-0.866c1.256,0.038,2.338,0.038,3.425,0.038c1.079,0,2.119,0,3.417-0.038   c0,0-0.021,0.563-0.021,0.866c0,0.305,0.021,0.883,0.021,0.883H53.884z"/>
							<path fill="#EE3F6B" d="M57.702,50.912c-0.507,0-1.154,0.008-1.377,0.008v-0.486c0.456,0,0.8-0.048,0.8-0.697v-4.545   c0-0.694-0.396-0.694-0.91-0.694V44.01c0.228,0,0.979,0.01,1.487,0.01c0.504,0,1.163-0.01,1.952-0.01c0.698,0,1.256,0,1.854-0.018   c0,0-0.021,0.453-0.021,0.757c0,0.306,0.021,0.757,0.021,0.757h-0.479c0-0.799-0.3-0.898-1.536-0.898   c-0.91,0-1.093,0.029-1.244,0.029v2.42h0.949c1.063,0,1.268-0.031,1.268-0.738h0.475c0,0.306-0.021,0.586-0.021,1.092   c0,0.508,0.021,0.779,0.021,1.084h-0.486c0-0.82-0.212-0.871-1.256-0.871H58.25v1.932c0,0.668,0.27,0.778,1.438,0.778   c1.224,0,1.668-0.069,1.668-1.019h0.486c0,0-0.021,0.496-0.021,0.797c0,0.306,0.021,0.811,0.021,0.811   C60.415,50.912,58.318,50.912,57.702,50.912z"/>
							<path fill="#EE3F6B" d="M70.646,49.061v1.737C70.111,50.829,69.411,51,68.49,51c-1.305,0-2.338-0.252-3.138-1.002   c-0.617-0.584-0.957-1.438-0.957-2.479c0-1.031,0.352-1.951,1.049-2.582c0.667-0.613,1.67-0.967,2.943-0.967   c1.024,0,1.743,0.16,2.087,0.176c0.133,0,0.335-0.016,0.335-0.016s-0.023,0.445-0.023,0.85c0,0.405,0.023,0.828,0.023,0.828h-0.491   c0.014-0.817-0.423-1.201-1.931-1.201c-0.979,0-1.668,0.252-2.112,0.727c-0.435,0.468-0.64,1.137-0.64,1.979   c0,1.026,0.295,1.808,0.781,2.313c0.535,0.547,1.273,0.771,2.094,0.771c0.556,0,0.87-0.063,1.003-0.104v-1.231   c0-0.689-0.417-0.701-0.921-0.701v-0.486c0.224,0,0.942,0.021,1.447,0.021c0.502,0,1.172-0.021,1.398-0.021v0.486   C70.979,48.359,70.646,48.421,70.646,49.061z"/>
							<path fill="#EE3F6B" d="M75.171,50.9c-0.504,0-1.135,0.02-1.354,0.02v-0.486c0.452,0,0.8-0.048,0.8-0.697v-4.545   c0-0.645-0.349-0.694-0.8-0.694V44.01c0.219,0,0.856,0.021,1.366,0.021c0.505,0,1.122-0.021,1.354-0.021v0.487   c-0.456,0-0.798,0.051-0.798,0.694v4.545c0,0.649,0.342,0.697,0.798,0.697v0.486C76.304,50.92,75.678,50.9,75.171,50.9z"/>
							<path fill="#EE3F6B" d="M81.327,50.971c-1.014,0-1.407-0.313-1.784-0.313c-0.061,0-0.302,0-0.302,0s0.021-0.563,0.021-0.87   c0-0.305-0.021-0.86-0.021-0.86h0.486c0,1.015,0.646,1.46,1.64,1.46c0.779,0,1.521-0.285,1.521-1.195   c0-0.893-0.927-1.084-1.827-1.438c-0.903-0.361-1.771-0.809-1.771-1.943c0-0.646,0.321-1.145,0.84-1.455   c0.414-0.242,0.951-0.373,1.559-0.373c0.853,0,1.185,0.201,1.594,0.201c0.059,0,0.281,0,0.281,0s-0.019,0.524-0.019,0.83   c0,0.303,0.019,0.797,0.019,0.797h-0.477c0-0.455-0.191-1.242-1.389-1.242c-0.402,0-0.707,0.062-0.929,0.192   c-0.286,0.162-0.418,0.415-0.418,0.759c0,0.83,0.87,1.061,1.724,1.404c1.033,0.413,1.917,0.729,1.917,1.885   C83.993,50.131,82.846,50.971,81.327,50.971z"/>
							<path fill="#EE3F6B" d="M87.723,50.9c-0.505,0-1.136,0.02-1.359,0.02v-0.486c0.459,0,0.801-0.048,0.801-0.697v-4.545   c0-0.645-0.344-0.694-0.801-0.694V44.01c0.224,0,0.861,0.021,1.371,0.021c0.508,0,1.125-0.021,1.358-0.021v0.487   c-0.458,0-0.801,0.051-0.801,0.694v4.545c0,0.649,0.343,0.697,0.801,0.697v0.486C88.859,50.92,88.227,50.9,87.723,50.9z    M91.796,50.9c-0.507,0-1.101,0.02-1.407,0.02v-0.486c0.426,0,0.75-0.08,0.375-0.463l-2.402-2.381l2.436-2.445   c0.09-0.104,0.17-0.207,0.17-0.347c0-0.162-0.16-0.302-0.646-0.302v-0.487c0.305,0,0.801,0.021,1.306,0.021   c0.504,0,1.015-0.021,1.312-0.021v0.478c-0.332,0-0.604,0-1.312,0.705L89.6,47.215l2.51,2.49c0.658,0.648,0.812,0.729,1.074,0.729   v0.486C92.878,50.92,92.301,50.9,91.796,50.9z"/>
							<path fill="#EE3F6B" d="M102.18,50.961c-0.688,0-1.447-0.041-2.063-0.049c-0.509,0-1.154,0.008-1.38,0.008v-0.486   c0.457,0,0.803-0.048,0.803-0.697v-4.545c0-0.694-0.443-0.694-0.912-0.694V44.01c0.232,0,0.98,0.01,1.489,0.01   c0.505,0,0.981-0.02,1.892-0.02c1.146,0,2.123,0.202,2.833,0.665c0.821,0.51,1.296,1.351,1.296,2.542   C106.137,49.414,104.73,50.961,102.18,50.961z M101.846,44.605c-0.787,0-0.973,0.052-1.187,0.084v4.854   c0,0.81,0.873,0.819,1.634,0.819c1.496,0,2.568-0.891,2.568-3.016C104.861,45.386,103.555,44.605,101.846,44.605z"/>
							<path fill="#EE3F6B" d="M110.014,50.912c-0.507,0-1.152,0.008-1.373,0.008v-0.486c0.455,0,0.797-0.048,0.797-0.697v-4.545   c0-0.694-0.397-0.694-0.91-0.694V44.01c0.232,0,0.979,0.01,1.486,0.01c0.508,0,1.161-0.01,1.95-0.01c0.7,0,1.257,0,1.854-0.018   c0,0-0.021,0.453-0.021,0.757c0,0.306,0.021,0.757,0.021,0.757h-0.476c0-0.799-0.303-0.898-1.536-0.898   c-0.912,0-1.093,0.029-1.248,0.029v2.42h0.951c1.065,0,1.268-0.031,1.268-0.738h0.474c0,0.306-0.021,0.586-0.021,1.092   c0,0.508,0.021,0.779,0.021,1.084h-0.485c0-0.82-0.209-0.871-1.255-0.871h-0.95v1.932c0,0.668,0.273,0.778,1.438,0.778   c1.225,0,1.673-0.069,1.673-1.019h0.481c0,0-0.018,0.496-0.018,0.797c0,0.306,0.018,0.811,0.018,0.811   C112.725,50.912,110.633,50.912,110.014,50.912z"/>
							<path fill="#EE3F6B" d="M118.959,50.971c-1.01,0-1.404-0.313-1.779-0.313c-0.059,0-0.305,0-0.305,0s0.021-0.563,0.021-0.87   c0-0.305-0.021-0.86-0.021-0.86h0.488c0,1.015,0.646,1.46,1.636,1.46c0.78,0,1.521-0.285,1.521-1.195   c0-0.893-0.922-1.084-1.824-1.438c-0.899-0.361-1.771-0.809-1.771-1.943c0-0.646,0.323-1.145,0.843-1.455   c0.414-0.242,0.948-0.373,1.557-0.373c0.852,0,1.185,0.201,1.584,0.201c0.064,0,0.289,0,0.289,0s-0.02,0.524-0.02,0.83   c0,0.303,0.02,0.797,0.02,0.797h-0.479c0-0.455-0.191-1.242-1.386-1.242c-0.405,0-0.71,0.062-0.931,0.192   c-0.284,0.162-0.414,0.415-0.414,0.759c0,0.83,0.869,1.061,1.719,1.404c1.033,0.413,1.915,0.729,1.915,1.885   C121.623,50.131,120.479,50.971,118.959,50.971z"/>
							<path fill="#EE3F6B" d="M125.439,50.9c-0.51,0-1.135,0.02-1.357,0.02v-0.486c0.453,0,0.796-0.048,0.796-0.697v-4.545   c0-0.645-0.343-0.694-0.796-0.694V44.01c0.223,0,0.859,0.021,1.365,0.021c0.508,0,1.123-0.021,1.355-0.021v0.487   c-0.455,0-0.798,0.051-0.798,0.694v4.545c0,0.649,0.343,0.697,0.798,0.697v0.486C126.57,50.92,125.943,50.9,125.439,50.9z"/>
							<path fill="#EE3F6B" d="M135.586,49.061v1.737c-0.531,0.031-1.23,0.202-2.154,0.202c-1.303,0-2.332-0.252-3.136-1.002   c-0.616-0.584-0.959-1.438-0.959-2.479c0-1.031,0.351-1.951,1.052-2.582c0.668-0.613,1.668-0.967,2.945-0.967   c1.021,0,1.736,0.16,2.082,0.176c0.13,0,0.333-0.016,0.333-0.016s-0.019,0.445-0.019,0.85c0,0.405,0.019,0.828,0.019,0.828h-0.485   c0.012-0.817-0.422-1.201-1.93-1.201c-0.986,0-1.673,0.252-2.117,0.727c-0.438,0.468-0.638,1.137-0.638,1.979   c0,1.026,0.294,1.808,0.78,2.313c0.537,0.547,1.271,0.771,2.094,0.771c0.558,0,0.872-0.063,1-0.104v-1.231   c0-0.689-0.412-0.701-0.917-0.701v-0.486c0.219,0,0.938,0.021,1.442,0.021c0.508,0,1.178-0.021,1.397-0.021v0.486   C135.921,48.359,135.586,48.421,135.586,49.061z"/>
							<path fill="#EE3F6B" d="M145.408,45.287v5.633h-0.682l-4.475-5.454v4.183c0,0.676,0.456,0.785,0.963,0.785v0.486   c-0.305,0-0.798-0.02-1.307-0.02c-0.504,0-0.898,0.02-1.203,0.02v-0.486c0.456,0,0.85-0.109,0.85-0.785v-4.314   c0-0.736-0.404-0.837-1-0.837V44.01c0.078,0,0.527,0.01,1.034,0.01c0.502,0,0.865-0.01,1.028-0.01l4.097,5.027v-3.749   c0-0.681-0.453-0.791-0.958-0.791V44.01c0.303,0,0.779,0.021,1.284,0.021c0.507,0,0.919-0.021,1.224-0.021v0.487   C145.809,44.496,145.408,44.605,145.408,45.287z"/>
						</g>
</svg>