<?xml version="1.0" standalone="no"?>
<!DOCTYPE svg PUBLIC "-//W3C//DTD SVG 1.1//EN" "http://www.w3.org/Graphics/SVG/1.1/DTD/svg11.dtd" >
<svg xmlns="http://www.w3.org/2000/svg">
<metadata></metadata>
<defs>
<font id="functiontwomediumregular" horiz-adv-x="1036" >
<font-face units-per-em="2048" ascent="1638" descent="-410" />
<missing-glyph horiz-adv-x="518" />
<glyph horiz-adv-x="0" />
<glyph unicode="&#xd;" horiz-adv-x="518" />
<glyph unicode=" "  horiz-adv-x="518" />
<glyph unicode="&#x09;" horiz-adv-x="518" />
<glyph unicode="&#xa0;" horiz-adv-x="518" />
<glyph unicode="!" horiz-adv-x="518" d="M152 109q0 51 38 84.5t91 33.5q49 0 80.5 -40t31.5 -89t-35.5 -80.5t-87.5 -31.5q-53 0 -85.5 34.5t-32.5 88.5zM178 326v1118h199v-1118h-199z" />
<glyph unicode="&#x22;" horiz-adv-x="679" d="M-20 918l206 548l197 -77l-264 -529zM295 918l207 546l198 -75l-266 -529z" />
<glyph unicode="#" horiz-adv-x="999" d="M0 422v137h219l53 395h-219v140h240l59 422h142l-60 -422h254l60 422h141l-60 -422h170v-138h-190l-55 -397h188v-137h-207l-59 -422h-141l59 422h-254l-59 -422h-142l60 422h-199zM360 559h252l56 397h-252z" />
<glyph unicode="$" d="M16 389l187 45q29 -115 76 -174q57 -72 161 -98v540q-141 43 -229 121q-111 96 -111 228q0 141 78 245.5t213 145.5q27 10 53 10v203h136l-2 -197q113 -16 192.5 -74.5t138.5 -160.5l-166 -90q-45 66 -73.5 91t-96.5 58v-414q154 -45 254 -147q113 -115 113 -266 q0 -197 -89 -301.5t-286 -159.5v-213h-127l2 209q-186 33 -279 123t-145 276zM307 1098q0 -55 43 -109.5t99 -68.5v360q-90 -53 -116 -91t-26 -91zM559 176q184 53 184 250q0 74 -55 142.5t-127 93.5z" />
<glyph unicode="%" horiz-adv-x="1595" d="M-55 981q0 180 71 311q88 162 256 162q164 0 244 -147q63 -117 64 -295q0 -184 -68 -318q-86 -170 -254 -170q-158 0 -244 156q-70 127 -69 301zM74 975q0 -109 39 -203q51 -123 145 -123q109 0 158 129q35 92 35 223q0 170 -50.5 253t-130.5 83q-109 0 -159 -135 q-37 -96 -37 -227zM178 -2l996 1442h163l-1001 -1442h-158zM926 436q0 170 73 309q90 170 248 170t242 -149q68 -121 67 -293q0 -193 -63 -321q-84 -170 -256 -170q-154 0 -240 157q-72 131 -71 297zM1059 453q0 -129 33 -220q49 -133 153 -133q100 0 150 142q37 106 37 229 q0 117 -35 203q-47 119 -146 119q-106 0 -155 -123q-37 -92 -37 -217z" />
<glyph unicode="&#x26;" horiz-adv-x="1275" d="M-14 389q0 139 100 262q92 113 231 166q-61 61 -101 146.5t-40 171.5q0 129 98.5 216t229.5 87q139 0 241.5 -83t102.5 -220q0 -102 -80 -203q-70 -86 -172 -144l262 -323l174 184l125 -143l-178 -189l256 -325h-250l-149 184q-111 -109 -207.5 -155t-241.5 -46 q-152 0 -276.5 130.5t-124.5 283.5zM184 391q0 -100 78 -165.5t180 -65.5q86 0 181 80q45 39 92 79l-279 351q-100 -45 -166 -109q-86 -82 -86 -170zM371 1137q0 -55 43 -113q37 -49 73 -98q53 33 86 61q89 74 89 152q0 61 -43.5 97t-106.5 36q-59 0 -100 -37t-41 -98z" />
<glyph unicode="'" horiz-adv-x="399" d="M-10 932l264 530l139 -61l-213 -541z" />
<glyph unicode="(" horiz-adv-x="440" d="M61 526q0 231 60 480q45 183 145 462l113 -49q-96 -244 -145.5 -472t-49.5 -476q0 -231 49 -461q43 -203 136 -444l-117 -55q-94 195 -142.5 476t-48.5 539z" />
<glyph unicode=")" horiz-adv-x="440" d="M-4 -444q96 229 145 453t49 460q0 233 -47 479q-53 272 -145 459l125 63q96 -260 143 -501.5t47 -503.5q0 -244 -53 -500t-154 -457z" />
<glyph unicode="*" horiz-adv-x="677" d="M-16 1229l61 100l201 -117v232h110v-240l199 111l55 -90l-190 -115l196 -109l-55 -98l-209 115v-225h-104v221l-203 -111l-55 94l205 117z" />
<glyph unicode="+" horiz-adv-x="1275" d="M14 514v164h510v510h164v-510h514v-164h-514v-514h-164v514h-510z" />
<glyph unicode="," horiz-adv-x="440" d="M-78 -207l285 508l176 -111l-336 -469z" />
<glyph unicode="-" horiz-adv-x="518" d="M51 410v131h408v-131h-408z" />
<glyph unicode="." horiz-adv-x="440" d="M68 111q0 51 42 82.5t95 31.5q49 0 77.5 -37.5t28.5 -91.5q0 -49 -37.5 -80.5t-89.5 -31.5q-47 0 -81.5 38.5t-34.5 88.5z" />
<glyph unicode="/" horiz-adv-x="559" d="M-25 -2l406 1276h149l-401 -1276h-154z" />
<glyph unicode="0" horiz-adv-x="1077" d="M-16 700q0 293 104 500q133 264 397 264q250 0 389 -227q117 -193 117 -459q0 -305 -104 -522q-135 -281 -408 -281q-254 0 -387 248q-109 201 -108 477zM178 705q0 -211 53 -351q78 -202 254 -202q166 0 250 227q61 168 62 371q0 199 -56 337q-78 197 -245 197 q-172 0 -256 -215q-61 -158 -62 -364z" />
<glyph unicode="1" horiz-adv-x="1077" d="M170 1245l104 197h349v-1442h-205v1245h-248z" />
<glyph unicode="2" horiz-adv-x="1077" d="M-31 -2q59 66 122 144.5t124 154.5q92 109 184 219q131 160 209 281q101 157 101 241q0 88 -69 165t-155 77q-127 0 -188 -61q-53 -53 -86 -185h-199q0 190 136.5 310t326.5 120q195 0 315.5 -118.5t120.5 -315.5q0 -137 -104 -301q-49 -76 -201 -258q-59 -72 -119 -143 q-43 -51 -122 -142h548v-188h-944z" />
<glyph unicode="3" horiz-adv-x="1077" d="M-6 377h211q18 -94 74.5 -152.5t150.5 -58.5q123 0 196.5 65.5t73.5 186.5q0 129 -79.5 192.5t-212.5 63.5v174l8 2q117 0 178 41q76 49 76 160t-61.5 168t-174.5 57q-78 0 -130 -56.5t-71 -140.5h-204q0 174 129 281q121 98 301 98q182 0 301 -104.5t119 -286.5 q0 -102 -45 -176q-33 -51 -125 -137q100 -57 146 -132t46 -190q0 -203 -121 -330t-323 -127q-209 0 -314.5 96.5t-148.5 305.5z" />
<glyph unicode="4" horiz-adv-x="1077" d="M-72 209l877 1327v-1159h158v-166h-164v-215h-201v213h-670zM250 373h352l8 559z" />
<glyph unicode="5" horiz-adv-x="1077" d="M-66 221l134 125q74 -98 135 -139q80 -55 186 -55q131 0 232.5 97t101.5 228q0 133 -95.5 232.5t-228.5 99.5q-82 0 -170 -49q-37 -20 -147 -103l235 791h553v-182h-419l-84 -297l67 4q205 0 343 -124t138 -329q0 -229 -151.5 -384.5t-378.5 -155.5q-141 0 -248.5 60 t-202.5 181z" />
<glyph unicode="6" horiz-adv-x="1077" d="M-25 475q0 109 37 218.5t168 305.5l295 443h221l-323 -494q37 8 67.5 10.5t73.5 2.5q195 0 334 -137.5t139 -334.5q0 -203 -143.5 -354t-347.5 -151q-217 0 -369 137t-152 354zM172 489q0 -115 85 -214t200 -99q139 0 235 86t96 223q0 123 -92 215.5t-217 92.5 q-123 0 -215 -90.5t-92 -213.5z" />
<glyph unicode="7" horiz-adv-x="1077" d="M23 76l727 1177h-711v189h1055l-912 -1467z" />
<glyph unicode="8" horiz-adv-x="1077" d="M47 426q0 104 54.5 192.5t148.5 143.5q-84 57 -126 128t-42 169q0 164 121 286.5t286 122.5q176 0 298 -115.5t122 -293.5q0 -119 -44 -184.5t-152 -122.5q113 -51 163 -135.5t50 -210.5q0 -178 -131 -301t-310 -123q-182 0 -310 130t-128 314zM242 410q0 -106 72.5 -173 t179.5 -67q94 0 165.5 71.5t71.5 166.5q0 102 -68.5 176.5t-173.5 74.5q-109 0 -178 -69t-69 -180zM268 1053q0 -90 61.5 -156t153.5 -66q94 0 166 68t72 160q0 86 -65.5 153.5t-151.5 67.5q-102 0 -169 -62.5t-67 -164.5z" />
<glyph unicode="9" horiz-adv-x="1077" d="M2 1001q0 197 144.5 329t345.5 132q195 0 338 -139t143 -334q0 -55 -24.5 -133t-57.5 -125l-547 -782l-156 108l347 492l-70 -4q-209 0 -336 123t-127 333zM203 987q0 -117 80.5 -204t197.5 -87q115 0 203 84t88 201q0 115 -85 198t-202 83q-113 0 -197.5 -81t-84.5 -194 z" />
<glyph unicode=":" horiz-adv-x="518" d="M164 98q0 59 39 94t98 35q41 0 75 -35.5t34 -78.5q0 -53 -34 -91t-87 -38q-51 0 -88 31.5t-37 82.5zM164 690q0 51 37 86t90 35q51 0 85 -36t34 -87t-34 -87t-87 -36t-89 34t-36 91z" />
<glyph unicode=";" horiz-adv-x="518" d="M-98 -205l284 504l174 -109l-337 -471zM188 684q0 53 41.5 88t94.5 35q51 0 84.5 -38t33.5 -91t-37.5 -87t-93.5 -34q-53 0 -88 37t-35 90z" />
<glyph unicode="&#x3c;" horiz-adv-x="1091" d="M20 455v127l1041 471v-140l-871 -395l871 -395v-139z" />
<glyph unicode="=" horiz-adv-x="1275" d="M-86 330v159h1364v-159h-1364zM-86 700v160h1364v-160h-1364z" />
<glyph unicode="&#x3e;" horiz-adv-x="1091" d="M33 -16v139l870 395l-870 395v140l1040 -471v-127z" />
<glyph unicode="?" horiz-adv-x="876" d="M115 1051v36q0 166 87 268.5t253 102.5q145 0 248.5 -88t103.5 -231q0 -227 -234.5 -322.5t-234.5 -167.5q0 -45 34 -74.5t79 -29.5q61 0 94 39t45 102h190q0 -141 -95 -238.5t-239 -97.5q-127 0 -215 92.5t-88 221.5q0 188 236.5 278t236.5 195q0 59 -46 99t-105 40 q-90 0 -129 -72q-29 -53 -29 -153h-192zM344 84v27q0 47 41 79.5t90 32.5q43 0 78 -39t35 -84q0 -47 -35 -81.5t-84 -34.5q-41 0 -83 29.5t-42 70.5z" />
<glyph unicode="@" horiz-adv-x="2078" d="M301 739q0 317 226.5 543.5t545.5 226.5q285 0 490 -174q215 -184 215 -465q0 -207 -140 -391q-152 -201 -350 -200q-57 0 -94 34.5t-37 94.5q-53 -57 -117.5 -93t-132.5 -36q-131 0 -216 97t-85 230q0 215 127 383q137 182 346 182q80 0 140.5 -42t95.5 -117l41 127h141 q-76 -252 -149 -504q-14 -53 -25.5 -101.5t-11.5 -62.5q0 -25 5 -42t38 -17q123 0 213 163q78 143 78 279q0 240 -164 384t-408 144q-270 0 -446 -190.5t-176 -464.5q0 -270 182 -454.5t457 -184.5q143 0 275 61.5t220 172.5h137q-100 -168 -270 -264.5t-369 -96.5 q-328 0 -555 225.5t-227 552.5zM774 625q0 -84 45 -141.5t127 -57.5q125 0 219 145q86 133 86 265q0 72 -48 130t-120 58q-131 0 -225 -137q-84 -123 -84 -262z" />
<glyph unicode="A" horiz-adv-x="1357" d="M-84 0l723 1526l664 -1528h-230l-145 350h-623l-164 -348h-225zM393 535h459l-221 505z" />
<glyph unicode="B" d="M78 -2v1440l194 4q254 0 379 -64q178 -90 178 -319q0 -104 -35.5 -172t-125.5 -121q268 -66 268 -344q0 -260 -188 -356q-135 -70 -424 -70zM281 182h110q158 0 232 33q110 49 110 188q0 121 -82 179q-70 49 -198 49l-172 -2v-447zM285 811h110q104 0 168 65.5t64 170.5 q0 119 -95 163q-63 31 -198 31h-49v-430z" />
<glyph unicode="C" horiz-adv-x="1196" d="M10 707q0 322 213 542.5t535 220.5q88 0 186 -28q57 -16 178 -66v-250q-150 86 -170 97q-90 41 -190 41q-238 0 -389.5 -154t-151.5 -391q0 -233 154.5 -386t388.5 -153q92 0 179 36t173 99v-241q-88 -47 -174 -70.5t-182 -23.5q-311 0 -530.5 208.5t-219.5 518.5z" />
<glyph unicode="D" horiz-adv-x="1275" d="M66 6v1436l227 4h103t112 -6q315 0 489 -192.5t174 -522.5q0 -328 -211.5 -523.5t-543.5 -195.5h-350zM266 197h119q260 0 424 145q172 152 172 408q0 246 -182 378q-162 119 -416 119l-117 -6v-1044z" />
<glyph unicode="E" horiz-adv-x="956" d="M92 0v1440h793v-201h-582v-350h576v-195h-578v-495h573v-199h-782z" />
<glyph unicode="F" horiz-adv-x="837" d="M100 0v1442h711v-201h-500v-356h498v-191h-500v-694h-209z" />
<glyph unicode="G" horiz-adv-x="1513" d="M-12 721q0 322 215 532.5t536 210.5q174 0 320 -73q129 -66 260 -201l-139 -148q-102 106 -203 162q-123 68 -252 68q-227 0 -378.5 -169t-151.5 -401q0 -233 155.5 -384.5t386.5 -151.5q168 0 294 113.5t149 281.5h-367v199h592v-74q0 -289 -192.5 -500t-481.5 -211 q-334 0 -538.5 205t-204.5 541z" />
<glyph unicode="H" horiz-adv-x="1275" d="M57 0v1440h211v-578h645v582h213v-1446h-211v672h-651v-670h-207z" />
<glyph unicode="I" horiz-adv-x="477" d="M117 4v1440h215v-1440h-215z" />
<glyph unicode="J" horiz-adv-x="757" d="M-20 45l96 168q33 -23 63.5 -34t69.5 -11q94 0 141 72q41 63 41 161v1041h215l-10 -1073q0 -182 -99.5 -288t-281.5 -106q-55 0 -112.5 18.5t-122.5 51.5z" />
<glyph unicode="K" horiz-adv-x="1116" d="M80 -2v1442h201v-596l577 598h279l-652 -668l629 -778h-264l-569 711v-709h-201z" />
<glyph unicode="L" horiz-adv-x="837" d="M92 -2v1442h211v-1247h438v-195h-649z" />
<glyph unicode="M" horiz-adv-x="1554" d="M-88 -2l317 1550l480 -1140l497 1132l287 -1546h-209q-18 117 -53 314.5t-53 316.5q-29 188 -41 319l-439 -1020l-415 1010q-14 -164 -47 -352q-12 -70 -117 -584h-207z" />
<glyph unicode="N" horiz-adv-x="1476" d="M43 -2v1532q272 -252 553 -543q242 -250 526 -567q0 57 -8 185t-8 165v186l2 486h213v-1501q-90 92 -360 366q-229 233 -359 367q-195 203 -352 379q0 -92 8 -276.5t8 -276.5l2 -176l-6 -326h-219z" />
<glyph unicode="O" horiz-adv-x="1595" d="M-16 717q0 311 217 530t530 219t536.5 -215t223.5 -526q0 -309 -222 -527t-532 -218q-307 0 -530 216t-223 521zM195 713q0 -221 161.5 -375t384.5 -154q221 0 382 157t161 380q0 213 -153.5 374.5t-364.5 161.5q-246 0 -408.5 -150.5t-162.5 -393.5z" />
<glyph unicode="P" horiz-adv-x="956" d="M88 2v1436h340q229 0 350 -90q139 -104 140 -326q0 -186 -109 -300t-297 -130q-37 0 -110.5 -2t-110.5 -2v-586h-203zM293 788h172q96 0 173 58.5t77 152.5q0 123 -74 175.5t-201 52.5h-147v-439z" />
<glyph unicode="Q" horiz-adv-x="1595" d="M-2 731q0 307 224 517t536 210q311 0 525 -222t214 -536q0 -143 -61 -276q-53 -113 -160 -238l223 -237h-262l-113 125q-115 -51 -176 -70q-94 -29 -186 -29q-324 0 -544 216.5t-220 539.5zM207 733q0 -215 150.5 -386t363.5 -171q82 0 168 21q25 6 98 28l-321 334h270 l209 -227q51 84 104 168q43 86 43 194q0 221 -145 387q-154 176 -373 176q-231 0 -395 -143q-172 -152 -172 -381z" />
<glyph unicode="R" horiz-adv-x="1077" d="M78 -2v1444h420q197 0 310.5 -99.5t113.5 -293.5q0 -334 -312 -418q72 -100 149 -207t152.5 -212.5t145.5 -211.5h-248l-442 614h-88v-616h-201zM285 793h161q121 0 192 59t71 180q0 100 -52.5 155.5t-152.5 55.5h-219v-450z" />
<glyph unicode="S" d="M-20 395l194 43q51 -127 111 -188q80 -84 194 -84q102 0 176 69.5t74 174.5q0 139 -168 231q-156 76 -311 154q-168 109 -168 286q0 176 122 279.5t300 103.5q127 0 229.5 -61.5t175.5 -171.5l-180 -105q-37 66 -99.5 111t-133.5 45q-82 0 -142.5 -48t-60.5 -126 q0 -100 166 -186q289 -150 311 -166q168 -123 168 -314q0 -195 -133 -327.5t-328 -132.5q-203 0 -323 110q-109 98 -174 303z" />
<glyph unicode="T" horiz-adv-x="876" d="M-51 1239v201h889v-201h-344v-1239h-205v1239h-340z" />
<glyph unicode="U" horiz-adv-x="1236" d="M47 496v944h205v-899q0 -166 70 -265q79 -114 236 -114h3q172 0 254 108q74 98 74 275v893h217v-934q0 -227 -144.5 -380t-371.5 -153q-244 0 -393.5 141.5t-149.5 383.5z" />
<glyph unicode="V" horiz-adv-x="1236" d="M-82 1438h229q68 -141 150 -344q55 -133 135 -353q63 -176 129 -352q55 174 125 352q53 137 139 349q125 305 142 348h225l-635 -1534z" />
<glyph unicode="W" horiz-adv-x="1912" d="M-135 1440h227q80 -186 141 -334q82 -197 138 -336q43 -106 131 -340q51 164 121 363q47 133 131 362q94 258 129 361q104 -272 209 -543q119 -317 186 -555q59 172 123 340q4 10 135 340q104 264 133 338h213l-610 -1532q-31 84 -131 354q-92 248 -131 356 q-68 188 -121 361q-174 -547 -381 -1081z" />
<glyph unicode="X" horiz-adv-x="1077" d="M-88 -2l428 735l-426 705h246l301 -514l291 514h239l-407 -707l430 -737h-234l-323 547l-310 -543h-235z" />
<glyph unicode="Y" horiz-adv-x="1116" d="M-84 1440h258l322 -588q117 193 174 289q106 180 164 297h253q-106 -174 -243 -406q-109 -182 -240 -411v-621h-205v621q-80 137 -157 274q-106 186 -160 274q-43 72 -166 271z" />
<glyph unicode="Z" horiz-adv-x="1077" d="M-76 -4l711 1247h-598v197h952l-725 -1256h701v-188h-1041z" />
<glyph unicode="[" horiz-adv-x="595" d="M92 -475v1917h414v-191h-213v-1530h211v-196h-412z" />
<glyph unicode="\" horiz-adv-x="569" d="M-35 1509h135l504 -1548h-137z" />
<glyph unicode="]" horiz-adv-x="595" d="M23 -285h217v1532h-211v197h413v-1917h-419v188z" />
<glyph unicode="^" horiz-adv-x="0" d="M-289 1677l287 195l281 -199l-76 -106l-213 137l-207 -141z" />
<glyph unicode="_" horiz-adv-x="1138" d="M0 -154h1139v-102h-1139v102z" />
<glyph unicode="`" horiz-adv-x="0" d="M-319 1346l196 69l254 -323l-131 -45z" />
<glyph unicode="a" horiz-adv-x="997" d="M0 446q0 182 115.5 319.5t294.5 137.5q80 0 141 -30.5t123 -94.5v103h192v-883h-192v115q-59 -66 -130 -101t-155 -35q-178 0 -289 150q-100 135 -100 319zM193 426q0 -111 63 -189.5t172 -78.5q129 0 196.5 82t67.5 213q0 113 -67.5 192.5t-178.5 79.5q-117 0 -185 -88 t-68 -211z" />
<glyph unicode="b" d="M45 2v1522h193l-2 -738q88 61 133 84q76 37 153 37q197 0 313.5 -137t116.5 -336q0 -178 -127 -317.5t-303 -139.5q-86 0 -154.5 33t-138.5 101v-109h-184zM221 436q0 -127 73 -209t200 -82q115 0 190.5 88.5t75.5 206.5q0 119 -78 207t-195 88q-123 0 -194.5 -86 t-71.5 -213z" />
<glyph unicode="c" horiz-adv-x="798" d="M12 436q0 207 133.5 340t341.5 133q68 0 144 -20q20 -6 82 -27v-198q-86 43 -131 55t-88 12q-121 0 -204 -93t-83 -216q0 -109 81 -185.5t193 -76.5q63 0 121 20q27 10 113 51v-200q-53 -23 -119 -39.5t-121 -16.5q-193 0 -328 133.5t-135 327.5z" />
<glyph unicode="d" d="M6 451q0 197 120 328.5t312 131.5q86 0 155 -31.5t134 -97.5v738h193v-1516h-195v105q-84 -68 -137 -95q-74 -37 -162 -37q-190 0 -309 146q-111 135 -111 328zM195 467q0 -145 63 -227q72 -93 211 -93q123 0 198.5 86t75.5 213q0 117 -67 203q-74 94 -189 94 q-123 0 -207.5 -76.5t-84.5 -199.5z" />
<glyph unicode="e" horiz-adv-x="956" d="M2 446q0 197 122 329t318 132q207 0 316 -137q100 -127 100 -340v-20h-661q18 -121 65 -183q56 -75 167 -75h3q86 0 149.5 44t114.5 123q51 -25 82 -40t68 -37q-88 -133 -168 -193q-100 -74 -242 -74q-203 0 -318.5 132.5t-115.5 338.5zM209 557h442q-14 92 -71.5 141.5 t-151.5 49.5q-84 0 -142.5 -53.5t-76.5 -137.5z" />
<glyph unicode="f" horiz-adv-x="518" d="M-10 721v164l92 -2l-6 237q0 193 55 285q72 119 252 119q25 0 58.5 -4t58.5 -9v-172q-16 2 -31.5 5.5t-36.5 3.5q-70 0 -116 -52.5t-46 -124.5v-286h230v-166h-240v-717h-178v719h-92z" />
<glyph unicode="g" horiz-adv-x="997" d="M0 420q0 199 96 332q108 151 298 151h3q154 0 277 -104v82h192v-920q0 -209 -109.5 -318.5t-318.5 -109.5q-180 0 -277.5 94t-127.5 275h200v-15q0 -88 61.5 -134t151.5 -46q143 0 197 115q37 80 37 241l-2 56q-104 -139 -281 -139q-168 0 -282.5 134t-114.5 306z M188 451q0 -127 66.5 -211t191.5 -84q115 0 179.5 80.5t64.5 199.5t-59 199q-66 88 -182 88q-123 0 -192 -75t-69 -197z" />
<glyph unicode="h" horiz-adv-x="917" d="M51 0v1522h195v-721q43 53 106.5 78.5t139.5 25.5q133 0 218 -91t85 -226v-590h-187v528q0 94 -45 150.5t-137 56.5q-102 0 -150 -88q-38 -70 -38 -177v-5v-463h-187z" />
<glyph unicode="i" horiz-adv-x="397" d="M41 1247q0 59 42 95t103 36q49 0 86 -36.5t37 -88.5q0 -61 -43 -98t-104 -37q-47 0 -84 41t-37 88zM74 2v885h188v-885h-188z" />
<glyph unicode="j" horiz-adv-x="397" d="M45 1253q0 55 43 91t100 36q51 0 86 -36.5t35 -90.5q0 -53 -39 -92t-92 -39q-55 0 -94 37t-39 94zM78 -463v1350h188v-1350h-188z" />
<glyph unicode="k" horiz-adv-x="798" d="M57 8v1510h195v-977l321 344h273q-94 -66 -205 -180q-96 -100 -190 -199l387 -506h-236l-285 375l-71 -70v-297h-189z" />
<glyph unicode="l" horiz-adv-x="397" d="M90 0v1520h195v-1520h-195z" />
<glyph unicode="m" horiz-adv-x="1357" d="M16 0v885h195l-2 -92q51 59 100 84.5t125 25.5q78 0 143.5 -29.5t108.5 -91.5q43 63 105.5 91t144.5 28q131 0 211 -69.5t80 -200.5v-633h-189v506q0 88 -20 137q-31 74 -107 74q-109 0 -150.5 -62.5t-41.5 -177.5v-475h-195l2 563q0 68 -41 109t-108 41q-96 0 -141 -80 q-35 -63 -35 -168v-465h-185z" />
<glyph unicode="n" horiz-adv-x="917" d="M55 2v883h189v-74q55 33 112 68q57 30 125 30h4q135 0 221.5 -90t86.5 -225v-592h-185v512q0 96 -37 152q-44 65 -134 65h-3q-94 0 -143 -68.5t-49 -166.5v-494h-187z" />
<glyph unicode="o" d="M8 446q0 207 138.5 335t345.5 128q197 0 327.5 -135t130.5 -332q0 -193 -139 -330t-332 -137q-199 0 -335 136.5t-136 334.5zM195 446q0 -117 81.5 -200.5t200.5 -83.5q113 0 199 78.5t86 191.5q0 117 -85 208t-202 91t-198.5 -84t-81.5 -201z" />
<glyph unicode="p" d="M49 -465v1346h184v-101q78 70 143.5 99.5t164.5 29.5q186 0 300.5 -128t114.5 -318q0 -207 -108 -342q-117 -145 -318 -146q-88 0 -159.5 34t-137.5 102v-576h-184zM225 479q0 -143 62 -225q70 -94 209 -94q127 0 201.5 85t74.5 214q0 123 -72.5 204.5t-195.5 81.5 q-115 0 -197 -75.5t-82 -190.5z" />
<glyph unicode="q" d="M4 434q0 197 118 334t312 137q90 0 158 -33q47 -23 135 -92v99h191v-1342h-195v565q-68 -63 -139.5 -96t-157.5 -33q-190 0 -306 134.5t-116 326.5zM197 428q0 -125 75.5 -198.5t200.5 -73.5q127 0 195 88q61 80 61 209q0 123 -78 198.5t-200 75.5q-117 0 -185.5 -88 t-68.5 -211z" />
<glyph unicode="r" horiz-adv-x="595" d="M78 2v885h184v-103q55 63 90 86q53 35 121 35q37 0 78 -8t82 -23l-82 -188q-55 41 -117 41q-90 0 -135 -80q-37 -66 -37 -164v-481h-184z" />
<glyph unicode="s" horiz-adv-x="718" d="M6 182l158 74q33 -45 69 -74q49 -37 95 -37q49 0 83.5 26t34.5 73q0 61 -191.5 155.5t-191.5 253.5q0 111 86.5 180.5t198.5 69.5q70 0 124 -31.5t134 -144.5l-149 -80q-43 51 -58 64q-36 32 -73 32h-2q-84 0 -84 -86q0 -49 191.5 -148t191.5 -259q0 -119 -101 -195 q-91 -69 -212 -69h-3q-106 0 -176 55q-41 33 -125 141z" />
<glyph unicode="t" horiz-adv-x="477" d="M14 715v168h97v295h188v-293h152v-170h-154l-4 -715h-182v715h-97z" />
<glyph unicode="u" horiz-adv-x="917" d="M45 397v486h184v-469q0 -115 35 -176q45 -80 152 -80q92 0 139 62.5t47 158.5v504h189v-504q0 -193 -100.5 -297.5t-291.5 -104.5q-188 0 -276 119q-78 106 -78 301z" />
<glyph unicode="v" horiz-adv-x="876" d="M-68 879h215l242 -517l250 519h209l-469 -920z" />
<glyph unicode="w" horiz-adv-x="1357" d="M-113 883h209l266 -529l248 582l254 -588l250 531h209l-463 -951l-250 582l-243 -584z" />
<glyph unicode="x" horiz-adv-x="956" d="M-76 4l377 479l-315 402h245q78 -94 101 -123q55 -72 94 -131q45 66 68 96q45 61 120 158h242l-315 -398l372 -485h-237l-260 334q-61 -86 -125 -171t-133 -161h-234z" />
<glyph unicode="y" horiz-adv-x="956" d="M-68 883h215l304 -537l260 537h217l-684 -1350h-224l328 623z" />
<glyph unicode="z" horiz-adv-x="917" d="M-94 -2l600 719h-481v166h856l-598 -713h557v-172h-934z" />
<glyph unicode="{" horiz-adv-x="684" d="M86 479v123q113 0 147 137q16 66 17 230l-2 88q0 193 22 268q45 154 191 154h137v-133h-90q-55 0 -74.5 -51.5t-19.5 -116.5v-232l-2 -117q0 -88 -47 -172q-53 -94 -132 -114q113 -37 154 -170q27 -88 27 -242l-2 -178q0 -92 10 -135q20 -86 86 -86h90v-133h-137 q-96 0 -152.5 81.5t-56.5 182.5v350q0 96 -35 170q-45 96 -131 96z" />
<glyph unicode="|" horiz-adv-x="532" d="M193 -39v1548h149v-1548h-149z" />
<glyph unicode="}" horiz-adv-x="684" d="M86 -268h90q63 0 84 84q10 43 10 137l-2 176q0 156 27 242q41 133 156 168q-78 23 -129.5 112.5t-51.5 175.5v351q0 70 -14 106q-23 61 -80 62h-90v133h137q131 0 180 -131q33 -86 33 -261q0 -33 -1 -62.5t-1 -55.5q0 -162 17 -228q35 -139 147 -139v-123q-84 0 -129 -96 q-37 -78 -37 -170v-350q0 -102 -51 -178q-59 -86 -158 -86h-137v133z" />
<glyph unicode="~" horiz-adv-x="0" d="M-371 1673q31 49 106 92t132 43t121 -26q141 -59 166 -60q31 0 61.5 14.5t71.5 57.5l100 -86q-51 -63 -111.5 -101t-134.5 -38q-61 0 -147 41t-127 41q-31 0 -54.5 -10.5t-80.5 -53.5z" />
<glyph horiz-adv-x="1019" d="M-23 268v107h371l152 274h-523v109h584l178 321l97 -55l-150 -266h324v-109h-383l-154 -274h537v-107h-594l-178 -317l-97 55l146 262h-310z" />
<glyph horiz-adv-x="1323" d="M-18 524q0 111 84 191t194 80q96 0 203 -70q55 -37 172 -141q113 104 170 141q107 70 205 70q111 0 192.5 -80t81.5 -193q0 -111 -77 -194.5t-185 -83.5q-113 0 -213 65q-35 23 -174 146q-139 -123 -174 -146q-100 -66 -215 -65q-109 0 -186.5 86t-77.5 194zM84 510 q0 -72 56.5 -122t129.5 -50q82 0 166 59q33 25 135 121q-92 80 -143 113q-92 61 -168 61q-72 0 -124 -54t-52 -128zM700 518q94 -90 136 -119q84 -59 168 -59q74 0 129 48t55 122q0 72 -51.5 127t-124.5 55q-76 0 -168 -59q-47 -31 -144 -115z" />
<glyph horiz-adv-x="1134" d="M-47 0l629 1352l555 -1352h-1184zM82 96h811l-383 920z" />
<glyph horiz-adv-x="917" d="M-10 741l383 723h116l381 -723l-381 -741h-116zM109 741l321 -635l324 635l-324 617z" />
<glyph horiz-adv-x="1280" />
<glyph unicode="&#xa1;" horiz-adv-x="518" d="M66 1331q0 53 37 90t90 37q57 0 90.5 -38t33.5 -97q0 -45 -42 -79t-89 -34t-83.5 37t-36.5 84zM92 0v1120h195v-1120h-195z" />
<glyph unicode="&#xa2;" horiz-adv-x="798" d="M12 434q0 180 103.5 308t279.5 159v143h119l2 -135q59 0 125 -20q49 -18 72 -27v-198q-92 45 -119 53q-43 14 -80 14v-569q49 0 104 22q12 4 97 47v-202q-96 -41 -201 -52v-153h-119v158q-168 29 -275.5 155.5t-107.5 296.5zM209 422q0 -88 51 -155.5t135 -92.5l2 539 q-86 -33 -137 -114t-51 -177z" />
<glyph unicode="&#xa3;" horiz-adv-x="1236" d="M55 63q63 111 107 150q62 55 168 80q14 37 21 72.5t7 70.5q0 31 -10 70t-24 65h-261v119h195q-47 102 -68 150q-39 88 -38 159q0 197 140 329t339 132q207 0 340 -127t133 -329l-186 -60q-23 160 -74 236q-70 100 -215 100q-127 0 -201 -76t-74 -203q0 -59 68 -202 q27 -57 55 -115h297v-115h-254q12 -33 18.5 -73.5t6.5 -79.5q0 -27 -9.5 -71t-21.5 -79q78 -29 170 -60.5t147 -31.5q53 0 107 43q43 33 80 88l137 -86q-59 -104 -133 -164q-88 -72 -195 -71q-90 0 -242.5 60t-219.5 60q-53 0 -95.5 -30.5t-70.5 -81.5z" />
<glyph unicode="&#xa7;" horiz-adv-x="917" d="M-6 -80h194q23 -109 58 -158q49 -72 143 -71q84 0 151.5 60.5t67.5 142.5q0 74 -41 118q-51 55 -188 82q-162 33 -254 127q-100 102 -100 262q0 92 45 176q31 55 108 150q-61 74 -74 90q-51 74 -51 172q0 170 110.5 278.5t280.5 108.5q180 0 289 -108.5t109 -290.5v-23 l-183 6q0 94 -59 162t-151 68q-82 0 -144.5 -51.5t-62.5 -130.5q0 -145 164 -199q248 -80 284 -111q66 -55 101.5 -134t35.5 -167q0 -92 -49 -172q-33 -53 -116 -139q72 -63 105.5 -119.5t33.5 -142.5q0 -156 -109.5 -275.5t-267.5 -119.5q-209 0 -307 102q-88 92 -123 307z M217 483q0 -86 60.5 -148.5t146.5 -62.5q92 0 153.5 63.5t61.5 156.5q0 82 -59.5 143t-143.5 61q-86 0 -152.5 -62.5t-66.5 -150.5z" />
<glyph unicode="&#xa8;" horiz-adv-x="0" d="M-305 1225q0 51 35 88t88 37t91 -38t38 -91q0 -55 -40 -87t-97 -32q-49 0 -82 37t-33 86zM47 1227q0 49 40 85t91 36q49 0 84 -37t35 -88t-37 -86t-88 -35q-53 0 -89 36t-36 89z" />
<glyph unicode="&#xa9;" horiz-adv-x="1466" d="M25 649q0 281 198 479.5t479 198.5t479.5 -198.5t198.5 -479.5q0 -283 -197.5 -480.5t-480.5 -197.5q-281 0 -479 199t-198 479zM102 649q0 -248 176 -424t424 -176t424.5 176t176.5 424t-176.5 424t-424.5 176t-424 -176t-176 -424zM334 633q0 162 104.5 276.5 t261.5 114.5q39 0 109 -19.5t100 -19.5q39 0 47 33h37l8 -252h-38q-16 90 -81 148.5t-155 58.5q-123 0 -199 -111q-68 -98 -67 -227q0 -137 66.5 -223t199.5 -86q84 0 131 21.5t125 84.5l23 -35q-68 -72 -136.5 -107.5t-156.5 -35.5q-170 0 -274.5 104.5t-104.5 274.5z" />
<glyph unicode="&#xab;" horiz-adv-x="798" d="M-55 475l370 500l113 -80l-317 -416l323 -409l-112 -84zM254 502l354 461l105 -84l-289 -381l321 -412l-112 -78z" />
<glyph unicode="&#xac;" horiz-adv-x="1323" d="M-39 459v106h1309v-565h-109v459h-1200z" />
<glyph unicode="&#xad;" horiz-adv-x="518" d="M51 410v131h408v-131h-408z" />
<glyph unicode="&#xae;" horiz-adv-x="1466" d="M23 639q0 281 198.5 479.5t478.5 198.5q281 0 479.5 -198.5t198.5 -479.5t-198.5 -479.5t-479.5 -198.5t-479 198.5t-198 479.5zM100 637q0 -250 176.5 -424t423.5 -174q248 0 424 176t176 424t-176 424t-426 176t-424 -176t-174 -426zM377 297v35q37 0 59 8q37 14 37 43 v567q0 35 -11 46.5t-38 11.5h-37v36h336q109 0 178 -36q90 -47 90 -148q0 -84 -58.5 -140t-141.5 -56l235 -304q25 -29 72 -28v-35h-187l-262 348h-51v-256q0 -33 26.5 -45t65.5 -12v-35h-313zM596 963l2 -273q106 0 168 25q92 37 92 129q0 84 -36 115.5t-122 39.5l-63 5 q-16 0 -28.5 -12.5t-12.5 -28.5z" />
<glyph unicode="&#xb0;" horiz-adv-x="518" d="M-63 1051q0 123 86 209t208 86q121 0 208 -87.5t87 -207.5q0 -121 -86 -207t-209 -86q-121 0 -207.5 85t-86.5 208zM14 1051q0 -88 63.5 -151.5t153.5 -63.5t154 61t64 154q0 88 -66 151.5t-154 63.5q-90 0 -152.5 -62.5t-62.5 -152.5z" />
<glyph unicode="&#xb1;" horiz-adv-x="1019" d="M-31 0v109h1039v-109h-1039zM-31 694v109h465v465h109v-465h465v-109h-465v-467h-109v467h-465z" />
<glyph unicode="&#xb4;" horiz-adv-x="0" d="M-123 1094l258 327l193 -80l-330 -297z" />
<glyph unicode="&#xb5;" horiz-adv-x="1071" d="M12 -299q0 53 17 119q39 158 39 198v965h168v-653q0 -98 46 -162t140 -64q61 0 127.5 46.5t93.5 103.5v729h168v-756q0 -59 23 -104q31 -59 84 -60q55 0 75 46q16 63 29 92l39 -2q-23 -102 -76 -162q-63 -70 -164 -70q-86 0 -127 58q-29 39 -47 137q-59 -84 -133 -135 q-88 -59 -178 -60q-49 0 -86 17q-8 4 -113 79v-45q0 -55 32 -160.5t32 -154.5q0 -51 -22.5 -96t-69.5 -45t-72 44t-25 95z" />
<glyph unicode="&#xb6;" horiz-adv-x="1366" d="M180 1038q0 197 126 302.5t327 105.5h471v-111h-70v-1677h-119v1677h-294v-1677h-119v995q-152 25 -237 128.5t-85 256.5z" />
<glyph unicode="&#xb7;" horiz-adv-x="321" d="M39 596q0 61 41 100t102 39q53 0 92 -41t39 -96q0 -57 -36.5 -98t-96.5 -41q-61 0 -101 38t-40 99z" />
<glyph unicode="&#xb8;" horiz-adv-x="0" d="M-70 -344l174 270l140 -59l-199 -266z" />
<glyph unicode="&#xbb;" horiz-adv-x="798" d="M-51 860l110 84l379 -491l-350 -463l-108 80l290 381zM262 879l107 90l379 -496l-369 -496l-103 74q55 102 187 266q92 115 121 154z" />
<glyph unicode="&#xbf;" horiz-adv-x="876" d="M-6 346q0 195 229.5 283t229.5 166q0 45 -35 75.5t-80 30.5q-49 0 -75.5 -23.5t-65.5 -121.5l-185 6q0 150 96.5 242t247.5 92q117 0 205 -96.5t88 -217.5q0 -70 -43 -135q-61 -102 -266 -172q-170 -57 -170 -172q0 -61 48 -101t110 -40q72 0 116.5 51t44.5 123l-6 47 h187v-33q0 -162 -87 -265t-247 -103q-170 0 -256 96t-86 268zM199 1337q0 53 37 88t90 35q55 0 90 -39t35 -94q0 -47 -42 -81t-92 -34q-47 0 -82.5 38t-35.5 87z" />
<glyph unicode="&#xc0;" horiz-adv-x="1357" d="M-84 0l723 1526l664 -1528h-230l-145 350h-623l-164 -348h-225zM322 1780l178 102l252 -262l-131 -66zM393 535h459l-221 505z" />
<glyph unicode="&#xc1;" horiz-adv-x="1357" d="M-84 0l723 1526l664 -1528h-230l-145 350h-623l-164 -348h-225zM393 535h459l-221 505zM467 1604l233 274l183 -86l-291 -250z" />
<glyph unicode="&#xc2;" horiz-adv-x="1357" d="M-84 0l723 1526l664 -1528h-230l-145 350h-623l-164 -348h-225zM319 1677l287 195l281 -199l-76 -106l-215 137l-205 -141zM393 535h459l-221 505z" />
<glyph unicode="&#xc3;" horiz-adv-x="1357" d="M-84 0l723 1526l664 -1528h-230l-145 350h-623l-164 -348h-225zM236 1673q43 53 109.5 94t127.5 41q59 0 186 -59q61 -29 103 -29q35 0 66.5 19.5t64.5 54.5l102 -86q-45 -59 -112.5 -99t-137.5 -40q-61 0 -149 42t-123 42q-39 0 -69.5 -16.5t-65.5 -49.5zM393 535h459 l-221 505z" />
<glyph unicode="&#xc4;" horiz-adv-x="1357" d="M-84 0l723 1526l664 -1530h-228l-147 352h-623l-164 -348h-225zM258 1425q0 43 42 75t87 32t77 -40t32 -87q0 -51 -39 -83t-92 -32q-47 0 -77 43t-30 92zM393 535h459l-221 505zM776 1409q0 53 33 88t88 35q49 0 84 -35t35 -84q0 -55 -37 -90t-92 -35q-43 0 -77 38 t-34 83z" />
<glyph unicode="&#xc5;" horiz-adv-x="1357" d="M-84 0l723 1526l661 -1528h-227l-145 350h-623l-164 -348h-225zM393 535h459l-221 505zM473 1696v37q0 66 51 112.5t119 46.5t118 -48t50 -115q0 -72 -49 -123.5t-121 -51.5q-53 0 -110.5 44t-57.5 98zM582 1729q0 -27 16 -45.5t43 -18.5q20 0 38.5 16.5t18.5 38.5 q0 61 -53 62q-27 0 -45 -13.5t-18 -39.5z" />
<glyph unicode="&#xc6;" horiz-adv-x="1873" d="M-137 -2l690 1444h649l86 -199h-571l162 -371h571l78 -196h-572l207 -483h572l88 -199h-793l-149 354h-639l-156 -350h-223zM338 537h461q-59 119 -119 272q-43 113 -100 283z" />
<glyph unicode="&#xc7;" horiz-adv-x="1196" d="M10 707q0 322 213 542.5t535 220.5q88 0 186 -28q57 -16 178 -66v-250q-150 86 -170 97q-90 41 -190 41q-238 0 -389.5 -154t-151.5 -391q0 -233 154.5 -386t388.5 -153q92 0 179 36t173 99v-241q-88 -47 -174 -70.5t-182 -23.5q-311 0 -530.5 208.5t-219.5 518.5z M475 -344l170 270l143 -59l-198 -266z" />
<glyph unicode="&#xc8;" horiz-adv-x="956" d="M92 0v1440h793v-201h-582v-350h576v-195h-578v-495h573v-199h-782zM156 1780l176 102l254 -262l-131 -66z" />
<glyph unicode="&#xc9;" horiz-adv-x="956" d="M92 0v1440h793v-201h-582v-350h576v-195h-578v-495h573v-199h-782zM301 1604l234 274l182 -86l-291 -250z" />
<glyph unicode="&#xca;" horiz-adv-x="956" d="M92 0v1440h793v-201h-582v-350h576v-195h-578v-495h573v-199h-782zM152 1677l286 195l281 -199l-76 -106l-213 137l-207 -141z" />
<glyph unicode="&#xcb;" horiz-adv-x="956" d="M92 0v1440h793v-201h-582v-350h576v-195h-578v-495h573v-199h-782zM102 1686q0 53 39.5 89.5t94.5 36.5q49 0 84.5 -41.5t35.5 -91.5q0 -47 -35.5 -80.5t-84.5 -33.5q-53 0 -93.5 33.5t-40.5 87.5zM522 1683q0 59 42.5 93t101.5 34q45 0 76.5 -39.5t31.5 -87.5 q0 -51 -39 -85.5t-90 -34.5q-49 0 -86 34.5t-37 85.5z" />
<glyph unicode="&#xcc;" horiz-adv-x="477" d="M-66 1780l179 102l252 -262l-129 -66zM117 4v1440h215v-1440h-215z" />
<glyph unicode="&#xcd;" horiz-adv-x="477" d="M98 1604l234 274l184 -86l-289 -250zM135 4v1440h215v-1440h-215z" />
<glyph unicode="&#xce;" horiz-adv-x="477" d="M-70 1677l287 195l283 -199l-78 -106l-215 137l-203 -141zM115 4v1440h215v-1440h-215z" />
<glyph unicode="&#xcf;" horiz-adv-x="477" d="M-123 1692q0 49 40 84.5t91 35.5q49 0 86 -40.5t37 -92.5q0 -49 -37 -81.5t-84 -32.5q-57 0 -95 35.5t-38 91.5zM109 4v1440h215v-1440h-215zM297 1692q0 51 44 84.5t97 33.5q47 0 80 -38.5t33 -85.5q0 -53 -42 -87t-97 -34q-51 0 -83 37.5t-32 89.5z" />
<glyph unicode="&#xd1;" horiz-adv-x="1476" d="M43 -2v1532q272 -252 553 -543q242 -250 526 -567q0 57 -8 185t-8 165v186l2 486h213v-1501q-90 92 -360 366q-229 233 -359 367q-195 203 -352 379q0 -92 8 -276.5t8 -276.5l2 -176l-6 -326h-219zM311 1673q57 57 107 90q68 45 129 45q63 0 190 -59q61 -29 99 -29 q37 0 68.5 19.5t64.5 54.5l100 -86q-55 -63 -108 -96q-68 -43 -140 -43q-63 0 -149 42t-125 42t-72 -19q-23 -12 -61 -47z" />
<glyph unicode="&#xd2;" horiz-adv-x="1595" d="M-16 717q0 311 217 530t530 219t536.5 -215t223.5 -526q0 -309 -222 -527t-532 -218q-307 0 -530 216t-223 521zM195 713q0 -221 161.5 -375t384.5 -154q221 0 382 157t161 380q0 213 -153.5 374.5t-364.5 161.5q-246 0 -408.5 -150.5t-162.5 -393.5zM444 1780l177 102 l253 -262l-131 -66z" />
<glyph unicode="&#xd3;" horiz-adv-x="1595" d="M-16 717q0 311 217 530t530 219t536.5 -215t223.5 -526q0 -309 -222 -527t-532 -218q-307 0 -530 216t-223 521zM195 713q0 -221 161.5 -375t384.5 -154q221 0 382 157t161 380q0 213 -153.5 374.5t-364.5 161.5q-246 0 -408.5 -150.5t-162.5 -393.5zM590 1604l233 274 l185 -86l-293 -250z" />
<glyph unicode="&#xd4;" horiz-adv-x="1595" d="M-16 717q0 311 217 530t530 219t536.5 -215t223.5 -526q0 -309 -222 -527t-532 -218q-307 0 -530 216t-223 521zM195 713q0 -221 161.5 -375t384.5 -154q221 0 382 157t161 380q0 213 -153.5 374.5t-364.5 161.5q-246 0 -408.5 -150.5t-162.5 -393.5zM440 1677l287 195 l283 -199l-78 -106l-213 137l-205 -141z" />
<glyph unicode="&#xd5;" horiz-adv-x="1595" d="M-16 717q0 311 217 530t530 219t536.5 -215t223.5 -526q0 -309 -222 -527t-532 -218q-307 0 -530 216t-223 521zM195 713q0 -221 161.5 -375t384.5 -154q221 0 382 157t161 380q0 213 -153.5 374.5t-364.5 161.5q-246 0 -408.5 -150.5t-162.5 -393.5zM360 1673 q45 55 105 92q70 43 131 43q59 0 123 -26q141 -59 164 -60q39 0 68.5 17.5t64.5 54.5l100 -86q-51 -63 -111.5 -101t-134.5 -38q-61 0 -149 42t-125 42q-39 0 -72 -19q-23 -12 -61 -47z" />
<glyph unicode="&#xd6;" horiz-adv-x="1595" d="M-14 1405q0 47 40 83t89 36q53 0 87 -36t34 -89q0 -49 -37 -86t-86 -37q-53 0 -90 37t-37 92zM-12 719q0 309 217 528t528 219q313 0 536.5 -215t223.5 -526q0 -309 -222 -527t-534 -218q-305 0 -527 216t-222 523zM197 713q0 -221 161.5 -375t384.5 -154q221 0 382 157 t161 380q0 213 -153.5 374.5t-364.5 161.5q-246 0 -408.5 -150.5t-162.5 -393.5zM1251 1403q0 53 41 88t94 35q47 0 82 -37t35 -86q0 -55 -36.5 -90t-92.5 -35q-49 0 -86 37t-37 88z" />
<glyph unicode="&#xd8;" horiz-adv-x="1595" d="M-41 74l188 186q-78 92 -121.5 206t-43.5 230q0 340 220 554t560 214q127 0 231 -39q80 -31 209 -110l189 188l116 -114l-190 -187q82 -121 121 -213q49 -119 49 -241q0 -326 -219 -547t-547 -221q-123 0 -248 44t-217 121l-184 -182zM188 725q0 -90 26 -164t79 -153 l762 751q-59 43 -136 70.5t-147 27.5q-242 0 -407 -143q-176 -152 -177 -389zM401 293q86 -53 146 -76q78 -31 160 -31q240 0 407.5 154t167.5 391q0 92 -31 170q-23 55 -84 156z" />
<glyph unicode="&#xd9;" horiz-adv-x="1236" d="M47 496v944h205v-899q0 -166 70 -265q80 -115 239 -114q172 0 254 108q74 98 74 275v893h217v-934q0 -227 -144.5 -380t-371.5 -153q-244 0 -393.5 141.5t-149.5 383.5zM283 1780l176 102l254 -262l-131 -66z" />
<glyph unicode="&#xda;" horiz-adv-x="1236" d="M47 496v944h205v-899q0 -166 70 -265q80 -115 239 -114q172 0 254 108q74 98 74 275v893h217v-934q0 -227 -144.5 -380t-371.5 -153q-244 0 -393.5 141.5t-149.5 383.5zM428 1604l234 274l182 -86l-291 -250z" />
<glyph unicode="&#xdb;" horiz-adv-x="1236" d="M47 496v944h205v-899q0 -166 70 -265q80 -115 239 -114q172 0 254 108q74 98 74 275v893h217v-934q0 -227 -144.5 -380t-371.5 -153q-244 0 -393.5 141.5t-149.5 383.5zM279 1677l286 195l281 -199l-76 -106l-213 137l-207 -141z" />
<glyph unicode="&#xdc;" horiz-adv-x="1236" d="M47 496v944h205v-899q0 -166 70 -265q80 -115 239 -114q172 0 254 108q74 98 74 275v893h217v-934q0 -227 -144.5 -380t-371.5 -153q-244 0 -393.5 141.5t-149.5 383.5zM297 1425q0 53 39 88t92 35q45 0 79 -43t34 -90q0 -45 -38 -78.5t-87 -33.5t-84 36.5t-35 85.5z M606 1436q0 43 41 76.5t86 33.5q49 0 83 -40t34 -89q0 -53 -34 -85t-89 -32q-53 0 -87 40.5t-34 95.5z" />
<glyph unicode="&#xdf;" d="M-45 664v178l76 2l-4 205q0 119 19.5 208t78.5 155.5t140 99t171 32.5q176 0 287 -110.5t111 -286.5q0 -86 -41 -160t-115 -123l18 -4q117 -45 181 -166q55 -106 55 -243q0 -117 -55 -220q-78 -139 -199 -196q-96 -47 -279 -64v179q162 0 252 75q100 84 101 242 q0 31 -8.5 62.5t-22.5 62.5q-49 104 -129 141q-63 29 -193 29v182q98 0 171 57.5t73 155.5q0 96 -57.5 153.5t-155.5 57.5q-86 0 -145.5 -59.5t-59.5 -145.5v-1163h-192v664h-78z" />
<glyph unicode="&#xe0;" horiz-adv-x="997" d="M0 446q0 182 115.5 319.5t294.5 137.5q80 0 141 -30.5t123 -94.5v103h192v-883h-192v115q-59 -66 -130 -101t-155 -35q-178 0 -289 150q-100 135 -100 319zM131 1346l195 69l254 -323l-131 -45zM193 426q0 -111 63 -189.5t172 -78.5q129 0 196.5 82t67.5 213 q0 113 -67.5 192.5t-178.5 79.5q-117 0 -185 -88t-68 -211z" />
<glyph unicode="&#xe1;" horiz-adv-x="997" d="M0 446q0 182 115.5 319.5t294.5 137.5q80 0 141 -30.5t123 -94.5v103h192v-883h-192v115q-59 -66 -130 -101t-155 -35q-178 0 -289 150q-100 135 -100 319zM193 426q0 -111 63 -189.5t172 -78.5q129 0 196.5 82t67.5 213q0 113 -67.5 192.5t-178.5 79.5q-117 0 -185 -88 t-68 -211zM324 1094l260 327l192 -80l-330 -297z" />
<glyph unicode="&#xe2;" horiz-adv-x="997" d="M0 446q0 182 115.5 319.5t294.5 137.5q80 0 141 -30.5t123 -94.5v103h192v-883h-192v115q-59 -66 -130 -101t-155 -35q-178 0 -289 150q-100 135 -100 319zM160 1126l289 289l294 -282l-104 -97l-193 187l-190 -187zM193 426q0 -111 63 -189.5t172 -78.5q129 0 196.5 82 t67.5 213q0 113 -67.5 192.5t-178.5 79.5q-117 0 -185 -88t-68 -211z" />
<glyph unicode="&#xe3;" horiz-adv-x="997" d="M0 446q0 182 115.5 319.5t294.5 137.5q80 0 141 -30.5t123 -94.5v103h192v-883h-192v115q-59 -66 -130 -101t-155 -35q-178 0 -289 150q-100 135 -100 319zM63 1202q59 63 109 94q65 41 135 41q61 0 149.5 -42t127.5 -42t70.5 18.5t64.5 53.5l106 -82 q-43 -59 -110.5 -101t-132.5 -42q-59 0 -147.5 41t-133.5 41q-35 0 -74 -21q-27 -14 -61 -47zM193 426q0 -111 63 -189.5t172 -78.5q129 0 196.5 82t67.5 213q0 113 -67.5 192.5t-178.5 79.5q-117 0 -185 -88t-68 -211z" />
<glyph unicode="&#xe4;" horiz-adv-x="997" d="M10 455q0 176 114 315t288 139q82 0 145 -32q39 -20 123 -89v101h186v-887h-186v119q-51 -61 -125 -99t-152 -38q-184 0 -294 147q-98 131 -99 324zM176 1227q0 53 39 88t94 35q43 0 77 -36t34 -81q0 -53 -32 -91t-85 -38t-90 35t-37 88zM197 430q0 -106 72.5 -185 t179.5 -79q113 0 182 90q63 82 63 199q0 113 -63 190q-70 84 -180 84q-117 0 -185.5 -88t-68.5 -211zM520 1233q0 47 40 82t89 35q55 0 88 -39t33 -94q0 -53 -40 -83t-95 -30q-47 0 -81 40t-34 89z" />
<glyph unicode="&#xe5;" horiz-adv-x="997" d="M6 451q0 182 109 315q117 143 295 143q82 0 145 -32q41 -20 121 -91v103h188v-885h-188v113q-102 -88 -157.5 -111.5t-123.5 -23.5q-182 0 -291 147q-98 133 -98 322zM197 438q0 -113 67 -193.5t178 -80.5q121 0 189 90q61 82 61 207q0 106 -63 184q-70 86 -172 86 q-113 0 -186.5 -88t-73.5 -205zM289 1221q0 78 51 131t131 53q76 0 132 -52.5t56 -127.5q0 -76 -52 -130.5t-128 -54.5q-84 0 -137 49.5t-53 131.5zM393 1206q0 -25 27.5 -42t52.5 -17q33 0 57.5 18.5t24.5 51.5q0 35 -21.5 60.5t-58.5 25.5q-33 0 -57.5 -23t-24.5 -57v-17z " />
<glyph unicode="&#xe6;" horiz-adv-x="1476" d="M-33 268q0 143 92.5 227.5t237.5 84.5q66 0 123 -20.5t125 -61.5l2 30q0 213 -217 213q-51 0 -121 -16t-115 -39l2 176q141 43 291 43q80 0 152.5 -38t122.5 -107q66 72 143.5 107.5t171.5 35.5q209 0 317 -149q98 -135 99 -353h-674q-2 -111 65.5 -184.5t176.5 -73.5 q92 0 161 54q43 33 119 129l137 -80q-86 -129 -170 -193q-109 -82 -237 -82q-119 0 -191 41q-47 27 -149 129q-45 -80 -133 -124t-187 -44q-139 0 -237 76q-106 82 -107 219zM154 281q0 -70 51 -107t123 -37q70 0 121 29q66 37 65 102q0 72 -52 114t-126 42q-72 0 -127 -38 t-55 -105zM723 561h475q-39 80 -61 107q-55 70 -176 69q-90 0 -146 -47q-43 -37 -92 -129z" />
<glyph unicode="&#xe7;" horiz-adv-x="798" d="M12 436q0 207 133.5 340t341.5 133q68 0 144 -20q20 -6 82 -27v-198q-86 43 -131 55t-88 12q-121 0 -204 -93t-83 -216q0 -109 81 -185.5t193 -76.5q63 0 121 20q27 10 113 51v-200q-53 -23 -119 -39.5t-121 -16.5q-193 0 -328 133.5t-135 327.5zM289 -344l172 270 l141 -59l-199 -266z" />
<glyph unicode="&#xe8;" horiz-adv-x="956" d="M2 446q0 197 122 329t318 132q207 0 316 -137q100 -127 100 -340v-20h-661q18 -121 65 -183q57 -76 170 -75q86 0 149.5 44t114.5 123q51 -25 82 -40t68 -37q-88 -133 -168 -193q-100 -74 -242 -74q-203 0 -318.5 132.5t-115.5 338.5zM109 1346l194 69l254 -323l-131 -45 zM209 557h442q-14 92 -71.5 141.5t-151.5 49.5q-84 0 -142.5 -53.5t-76.5 -137.5z" />
<glyph unicode="&#xe9;" horiz-adv-x="956" d="M2 446q0 197 122 329t318 132q207 0 316 -137q100 -127 100 -340v-20h-661q18 -121 65 -183q57 -76 170 -75q86 0 149.5 44t114.5 123q51 -25 82 -40t68 -37q-88 -133 -168 -193q-100 -74 -242 -74q-203 0 -318.5 132.5t-115.5 338.5zM209 557h442q-14 92 -71.5 141.5 t-151.5 49.5q-84 0 -142.5 -53.5t-76.5 -137.5zM303 1094l258 327l193 -80l-330 -297z" />
<glyph unicode="&#xea;" horiz-adv-x="956" d="M2 446q0 197 122 329t318 132q207 0 316 -137q100 -127 100 -340v-20h-661q18 -121 65 -183q57 -76 170 -75q86 0 149.5 44t114.5 123q51 -25 82 -40t68 -37q-88 -133 -168 -193q-100 -74 -242 -74q-203 0 -318.5 132.5t-115.5 338.5zM137 1126l289 289l293 -282 l-105 -97l-192 187l-189 -187zM209 557h442q-14 92 -71.5 141.5t-151.5 49.5q-84 0 -142.5 -53.5t-76.5 -137.5z" />
<glyph unicode="&#xeb;" horiz-adv-x="956" d="M2 446q0 197 122 329t318 132q207 0 316 -137q100 -127 100 -340v-20h-661q18 -121 65 -183q57 -76 170 -75q86 0 149.5 44t114.5 123q51 -25 82 -40t68 -37q-88 -133 -168 -193q-100 -74 -242 -74q-203 0 -318.5 132.5t-115.5 338.5zM121 1225q0 51 35 88t88 37t92 -39 t39 -92t-41 -85t-98 -32q-49 0 -82 37t-33 86zM209 557h442q-14 92 -71.5 141.5t-151.5 49.5q-84 0 -142.5 -53.5t-76.5 -137.5zM471 1221q0 51 40 89t93 38q51 0 85 -36t34 -89q0 -51 -37 -86t-88 -35q-49 0 -88 34.5t-39 84.5z" />
<glyph unicode="&#xec;" horiz-adv-x="397" d="M-145 1346l194 69l254 -323l-131 -45zM80 0v885h190v-885h-190z" />
<glyph unicode="&#xed;" horiz-adv-x="397" d="M76 1094l258 327l192 -80l-329 -297zM106 0v885h191v-885h-191z" />
<glyph unicode="&#xee;" horiz-adv-x="397" d="M-113 1126l289 289l293 -282l-104 -97l-193 187l-188 -187zM84 0v885h190v-885h-190z" />
<glyph unicode="&#xef;" horiz-adv-x="397" d="M-123 1225q0 51 35 88t88 37t92 -39t39 -92t-41 -85t-98 -32q-49 0 -82 37t-33 86zM90 0v885h191v-885h-191zM229 1227q0 49 40 85t91 36t85 -36t34 -89q0 -51 -36.5 -86t-88.5 -35q-53 0 -89 36t-36 89z" />
<glyph unicode="&#xf1;" horiz-adv-x="917" d="M55 1202q57 61 109 94q65 41 137 41q66 0 150 -42t124 -42q39 0 71 18.5t67 53.5l106 -82q-45 -59 -111.5 -101t-134.5 -42q-59 0 -147 42t-131 42q-37 0 -69.5 -18.5t-65.5 -51.5zM78 2v883h188v-74q55 33 113 68q59 31 129 30q135 0 221 -90t86 -225v-592h-184v512 q0 96 -37 152q-45 66 -137 65q-94 0 -143.5 -68.5t-49.5 -166.5v-494h-186z" />
<glyph unicode="&#xf2;" d="M8 446q0 207 138.5 335t345.5 128q197 0 327.5 -135t130.5 -332q0 -193 -139 -330t-332 -137q-199 0 -335 136.5t-136 334.5zM152 1346l194 69l254 -323l-133 -45zM195 446q0 -117 81.5 -200.5t200.5 -83.5q113 0 199 78.5t86 191.5q0 117 -85 208t-202 91t-198.5 -84 t-81.5 -201z" />
<glyph unicode="&#xf3;" d="M8 446q0 207 138.5 335t345.5 128q197 0 327.5 -135t130.5 -332q0 -193 -139 -330t-332 -137q-199 0 -335 136.5t-136 334.5zM195 446q0 -117 81.5 -200.5t200.5 -83.5q113 0 199 78.5t86 191.5q0 117 -85 208t-202 91t-198.5 -84t-81.5 -201zM344 1094l258 327l195 -80 l-332 -297z" />
<glyph unicode="&#xf4;" d="M8 446q0 207 138.5 335t345.5 128q197 0 327.5 -135t130.5 -332q0 -193 -139 -330t-332 -137q-199 0 -335 136.5t-136 334.5zM178 1126l289 289l295 -282l-105 -97l-192 187l-191 -187zM195 446q0 -117 81.5 -200.5t200.5 -83.5q113 0 199 78.5t86 191.5q0 117 -85 208 t-202 91t-198.5 -84t-81.5 -201z" />
<glyph unicode="&#xf5;" d="M10 446q0 207 138.5 335t345.5 128q197 0 327.5 -135t130.5 -332q0 -193 -139 -330t-332 -137q-199 0 -335 136.5t-136 334.5zM84 1202q49 59 106 94q68 41 136 41q63 0 151 -42t125 -42q39 0 72 18.5t65 53.5l107 -82q-43 -59 -110.5 -101t-133.5 -42q-51 0 -110 24 q-137 57 -168 58q-35 0 -70 -18.5t-68 -49.5zM197 446q0 -117 81.5 -200.5t200.5 -83.5q113 0 199 78.5t86 191.5q0 117 -85 208t-202 91t-198.5 -84t-81.5 -201z" />
<glyph unicode="&#xf6;" d="M6 442q0 203 139 333t344 130q207 0 334 -137t127 -344q0 -184 -143 -315.5t-330 -131.5q-195 0 -333 136.5t-138 328.5zM174 1225q0 45 40 78.5t87 33.5q53 0 85 -40t32 -93q0 -47 -35 -79.5t-84 -32.5q-55 0 -90 39t-35 94zM199 451q0 -119 77.5 -201t198.5 -82 q117 0 201 80t84 198q0 115 -83 196t-196 81q-115 0 -198.5 -78t-83.5 -194zM522 1210q0 53 37 90t90 37q43 0 82 -34.5t39 -79.5v-31q0 -39 -38 -70.5t-79 -31.5q-55 0 -93 33.5t-38 86.5z" />
<glyph unicode="&#xf7;" horiz-adv-x="1019" d="M-31 465v106h1035v-106h-1035zM367 250q0 45 30.5 77.5t77.5 32.5q45 0 78 -32.5t33 -77.5t-33 -78t-78 -33q-43 0 -75.5 33t-32.5 78zM367 786q0 45 30.5 78t77.5 33q45 0 78 -33t33 -78t-33 -77.5t-78 -32.5q-43 0 -75.5 32.5t-32.5 77.5z" />
<glyph unicode="&#xf8;" d="M-51 10l143 150q-47 72 -67 125q-27 70 -27 143q0 217 139 350t357 133q74 0 134 -20.5t134 -67.5l143 148l92 -88l-153 -148q49 -70 73.5 -135t24.5 -145q0 -203 -139 -342.5t-342 -139.5q-76 0 -146.5 26t-134.5 75l-149 -148zM190 428q0 -37 9.5 -66.5t29.5 -68.5 l394 389q-63 45 -140 45q-129 0 -211 -84t-82 -215zM311 213q70 -47 152 -47q123 0 205 82t82 203q0 78 -43 143z" />
<glyph unicode="&#xf9;" horiz-adv-x="917" d="M45 397v486h184v-469q0 -115 35 -176q45 -80 152 -80q92 0 139 62.5t47 158.5v504h189v-504q0 -193 -100.5 -297.5t-291.5 -104.5q-188 0 -276 119q-78 106 -78 301zM98 1346l195 69l256 -323l-131 -45z" />
<glyph unicode="&#xfa;" horiz-adv-x="917" d="M45 397v486h184v-469q0 -115 35 -176q45 -80 152 -80q92 0 139 62.5t47 158.5v504h189v-504q0 -193 -100.5 -297.5t-291.5 -104.5q-188 0 -276 119q-78 106 -78 301zM293 1094l260 327l192 -80l-329 -297z" />
<glyph unicode="&#xfb;" horiz-adv-x="917" d="M45 397v486h184v-469q0 -115 35 -176q45 -80 152 -80q92 0 139 62.5t47 158.5v504h189v-504q0 -193 -100.5 -297.5t-291.5 -104.5q-188 0 -276 119q-78 106 -78 301zM127 1126l291 289l293 -282l-105 -97l-192 187l-191 -187z" />
<glyph unicode="&#xfc;" horiz-adv-x="917" d="M53 369v510h195v-488q0 -115 33 -164q43 -63 151 -63q92 0 137 67q39 59 39 156v492h195v-496q0 -182 -101.5 -294t-281.5 -112q-178 0 -272.5 104.5t-94.5 287.5zM127 1225q0 45 39 79.5t84 34.5q55 0 91 -37.5t36 -95.5q0 -43 -41 -77.5t-86 -34.5q-57 0 -90 37t-33 94 zM477 1217q0 51 38 86.5t89 35.5q53 0 88 -36.5t35 -92.5q0 -49 -42 -82.5t-93 -33.5q-49 0 -82 37t-33 86z" />
<glyph unicode="&#xff;" horiz-adv-x="956" d="M-68 883h215l304 -537l260 537h217l-684 -1350h-224l328 623zM117 1225q0 51 35 88t88 37t92 -39t39 -92t-41 -85t-99 -32q-49 0 -81.5 37t-32.5 86zM467 1221q0 51 40 89t93 38q51 0 85 -36t34 -89q0 -51 -37 -86t-88 -35q-49 0 -88 34.5t-39 84.5z" />
<glyph unicode="&#x152;" horiz-adv-x="2113" d="M-47 735q0 289 210 507t499 218q197 0 317 -51q100 -43 264 -180v213h793v-211h-586v-357l584 -8v-184h-588v-487l584 -7v-196h-791v235q-127 -131 -253 -191.5t-298 -60.5q-307 0 -521 224.5t-214 535.5zM176 711q0 -217 160 -370t377 -153t376.5 160t159.5 379 q0 213 -160.5 369.5t-375.5 156.5q-227 0 -382 -158.5t-155 -383.5z" />
<glyph unicode="&#x153;" horiz-adv-x="1714" d="M-43 457q0 190 134 322t323 132q123 0 221 -59t176 -168q70 117 150 168q88 57 217 57q201 0 328.5 -130t127.5 -326l6 -56h-741q0 -104 90 -180t201 -76q88 0 170 56q66 45 129 127l145 -76q-98 -139 -184 -197q-109 -74 -260 -74q-119 0 -225.5 57.5t-169.5 160.5 q-72 -119 -165 -168.5t-235 -49.5q-197 0 -317.5 140.5t-120.5 339.5zM145 449q0 -123 79 -208t200 -85t203 81.5t82 202.5q0 125 -81 208t-206 83q-109 0 -193 -86t-84 -196zM920 561l530 -8q-27 82 -99.5 136t-158.5 54q-106 0 -166 -45q-45 -33 -106 -137z" />
<glyph unicode="&#x178;" horiz-adv-x="1116" d="M-84 1440h258l322 -588q117 193 174 289q106 180 164 297h253q-106 -174 -243 -406q-109 -182 -240 -411v-621h-205v621q-80 137 -157 274q-106 186 -160 274q-43 72 -166 271zM158 1692q0 49 42 84.5t93 35.5q47 0 83 -41.5t36 -89.5q0 -47 -37 -81.5t-84 -34.5 q-55 0 -94 34.5t-39 92.5zM578 1692q0 51 44 84.5t97 33.5q45 0 78.5 -35.5t33.5 -82.5q0 -55 -40.5 -92t-96.5 -37q-51 0 -83.5 38.5t-32.5 90.5z" />
<glyph unicode="&#x2c6;" horiz-adv-x="0" d="M-289 1126l289 289l293 -282l-105 -97l-192 187l-189 -187z" />
<glyph unicode="&#x2dc;" horiz-adv-x="0" d="M-383 1200q43 57 108.5 97t133.5 40q66 0 151.5 -42t122.5 -42t76 20.5t61 51.5l107 -82q-45 -59 -111.5 -101t-136.5 -42q-57 0 -145 42t-131 42q-35 0 -68 -18.5t-66 -51.5z" />
<glyph unicode="&#x2000;" horiz-adv-x="946" />
<glyph unicode="&#x2001;" horiz-adv-x="1892" />
<glyph unicode="&#x2002;" horiz-adv-x="946" />
<glyph unicode="&#x2003;" horiz-adv-x="1892" />
<glyph unicode="&#x2004;" horiz-adv-x="630" />
<glyph unicode="&#x2005;" horiz-adv-x="473" />
<glyph unicode="&#x2006;" horiz-adv-x="315" />
<glyph unicode="&#x2007;" horiz-adv-x="315" />
<glyph unicode="&#x2008;" horiz-adv-x="236" />
<glyph unicode="&#x2009;" horiz-adv-x="378" />
<glyph unicode="&#x200a;" horiz-adv-x="105" />
<glyph unicode="&#x2010;" horiz-adv-x="518" d="M51 410v131h408v-131h-408z" />
<glyph unicode="&#x2011;" horiz-adv-x="518" d="M51 410v131h408v-131h-408z" />
<glyph unicode="&#x2012;" horiz-adv-x="518" d="M51 410v131h408v-131h-408z" />
<glyph unicode="&#x2013;" horiz-adv-x="1077" d="M6 399v142h971v-142h-971z" />
<glyph unicode="&#x2014;" horiz-adv-x="1275" d="M-86 516v162h1364v-162h-1364z" />
<glyph unicode="&#x2018;" horiz-adv-x="440" d="M-18 932l264 530l139 -61l-213 -541z" />
<glyph unicode="&#x2019;" horiz-adv-x="440" d="M111 1264v170h174v-168q0 -61 -14.5 -101.5t-90.5 -134.5l-67 70q47 72 77 153z" />
<glyph unicode="&#x201a;" horiz-adv-x="397" d="M-63 -207l284 508l176 -111l-336 -469z" />
<glyph unicode="&#x201c;" horiz-adv-x="718" d="M-41 946l274 520l140 -53l-223 -547zM270 948l273 514l137 -57l-221 -545z" />
<glyph unicode="&#x201d;" horiz-adv-x="718" d="M-37 918l207 548l197 -77l-265 -529zM279 918l206 546l199 -75l-266 -529z" />
<glyph unicode="&#x201e;" horiz-adv-x="718" d="M-51 -266l219 536l188 -80l-272 -509zM256 -270l221 536l187 -78l-271 -512z" />
<glyph unicode="&#x2022;" horiz-adv-x="681" d="M74 723q0 109 81 187.5t191 78.5q111 0 186.5 -77.5t75.5 -188.5q0 -113 -74.5 -189.5t-187.5 -76.5q-111 0 -191.5 78.5t-80.5 187.5z" />
<glyph unicode="&#x2026;" horiz-adv-x="2048" d="M236 0v217h213v-217h-213zM918 0v217h212v-217h-212zM1599 0v217h213v-217h-213z" />
<glyph unicode="&#x202f;" horiz-adv-x="378" />
<glyph unicode="&#x2039;" horiz-adv-x="681" d="M180 473v189l322 251v-180l-215 -166l215 -166v-180z" />
<glyph unicode="&#x203a;" horiz-adv-x="681" d="M180 221v180l215 166l-215 166v180l322 -251v-189z" />
<glyph unicode="&#x205f;" horiz-adv-x="473" />
<glyph unicode="&#x2122;" horiz-adv-x="1652" d="M-49 1133l6 190h623l6 -190l-35 -3v17q0 88 -74 117q-43 16 -149 16v-614q0 -27 21.5 -40.5t76.5 -13.5v-37h-315v37q57 0 78.5 12.5t21.5 41.5l-2 614q-111 0 -152 -18q-70 -31 -69 -132zM643 1288v35h225l258 -565l248 565h221v-35h-18q-37 0 -57.5 -9t-20.5 -40v-573 q0 -27 21.5 -40.5t76.5 -13.5v-37h-315v37q57 0 78.5 12.5t21.5 41.5v544l-262 -635h-37l-282 605v-514q0 -35 35 -48q18 -6 65 -6v-37h-254v37q57 0 79 12.5t22 41.5v553q0 51 -25 60t-53 9h-27z" />
<glyph unicode="&#x25fc;" horiz-adv-x="880" d="M0 0v881h881v-881h-881z" />
</font>
</defs>
</svg>
