<svg xmlns="http://www.w3.org/2000/svg" xmlns:xlink="http://www.w3.org/1999/xlink" version="1.1" id="Layer_1" x="0px" y="0px" width="162px" height="52px" viewBox="0 0 162 52" enable-background="new 0 0 162 52" xml:space="preserve">
						<path fill="#EE3F6B" d="M33.686,12.498h5.037v2.114c1.207-1.408,3.424-2.617,6.046-2.617c5.083,0,7.903,3.373,7.903,8.309v14.555  h-5.034v-13.7c0-2.769-1.356-4.584-4.232-4.584c-2.164,0-4.129,1.362-4.683,3.575v14.709h-5.037V12.498z"/>
						<path fill="#EE3F6B" d="M83.793,6.652c-0.754-0.499-1.666-0.704-2.469-0.704c-2.014,0-3.273,1.208-3.273,3.428v3.122h4.889v4.179  h-4.889v18.183h-4.937V16.677h-3.88v-4.179h3.88V9.021c0-4.784,3.176-7.402,7.354-7.402c1.464,0,2.417,0.201,3.325,0.603V6.652z"/>
						<path fill="#EE3F6B" d="M97.275,35.357c-6.297,0-11.92-4.832-11.92-11.681s5.625-11.683,11.92-11.683  c6.297,0,11.912,4.834,11.912,11.683S103.572,35.357,97.275,35.357z M97.275,16.324c-3.623,0-6.873,3.123-6.873,7.354  c0,4.229,3.25,7.354,6.873,7.354c3.625,0,6.873-3.125,6.873-7.354C104.148,19.447,100.9,16.324,97.275,16.324z"/>
						<path fill="#EE3F6B" d="M126.152,17.583c-0.705-0.503-1.912-0.754-2.969-0.754c-2.07,0-3.98,1.159-4.488,3.574v14.455h-5.031V12.498  h5.031v2.316c0.854-1.661,2.822-2.819,4.988-2.819c1.104,0,2.116,0.2,2.469,0.398V17.583z"/>
						<path fill="#EE3F6B" d="M153.749,11.995c4.58,0,7.251,3.222,7.251,8.309v14.555h-5.039v-13.75c0-2.771-1.208-4.586-3.678-4.586  c-1.809,0-3.521,1.109-3.975,3.329v15.007h-5.037v-13.75c0-2.771-1.207-4.586-3.678-4.586c-1.814,0-3.527,1.109-3.979,3.329v15.007  h-5.034v-22.36h5.034v1.863c1.059-1.415,3.07-2.366,5.588-2.366c2.523,0,4.736,1.257,5.893,2.97  C148.661,13.153,150.727,11.995,153.749,11.995z"/>
						<path fill="#EE3F6B" d="M64.163,34.857h-5.035V12.498h5.035V34.857z"/>
						<circle fill="#EE3F6B" cx="61.646" cy="4.409" r="3.412"/>
</svg>